<svg width="34" height="32" viewBox="0 0 34 32" fill="none" xmlns="http://www.w3.org/2000/svg">
<path d="M15.864 31.9938C24.624 31.9938 31.7253 24.8317 31.7253 15.9969C31.7253 7.16206 24.624 0 15.864 0C7.10404 0 0.00268555 7.16206 0.00268555 15.9969C0.00268555 24.8317 7.10404 31.9938 15.864 31.9938Z" fill="white"/>
<path d="M15.864 31.9939C12.9157 31.9985 10.0258 31.1711 7.52002 29.6046L18.1454 0.164307C20.0259 0.437016 21.8435 1.05061 23.5073 1.97566C31.186 6.22435 33.9976 15.9458 29.7849 23.6917C26.9979 28.8174 21.6606 32.0001 15.864 31.9939Z" fill="#6E7BF2"/>
<path d="M10.4835 15.9272C10.4881 15.6576 10.4605 15.388 10.4021 15.1261H6.75171V16.5811H8.89492C8.8135 17.097 8.5262 17.5557 8.10063 17.8532L8.09295 17.9012L9.24675 18.803L9.32664 18.8108C10.0595 18.1275 10.4835 17.1218 10.4835 15.9272Z" fill="#4285F4"/>
<path d="M6.7517 19.7607C7.80103 19.7607 8.6829 19.412 9.32663 18.8108L8.10062 17.8517C7.70271 18.1213 7.23105 18.2577 6.75324 18.2437C5.74539 18.2375 4.8543 17.5805 4.54089 16.6136L4.4948 16.6183L3.2949 17.5542L3.27954 17.5976C3.9371 18.9255 5.28141 19.7622 6.7517 19.7607" fill="#34A853"/>
<path d="M4.53937 16.6152C4.45487 16.3657 4.41032 16.1038 4.41032 15.8389C4.41186 15.5755 4.45487 15.3136 4.5363 15.0626L4.53476 15.0114L3.31951 14.0601L3.27956 14.0787C2.72647 15.1865 2.72647 16.4912 3.27956 17.5991L4.53937 16.6152Z" fill="#FBBC05"/>
<path d="M6.75185 13.4356C7.30954 13.4263 7.84727 13.6354 8.2544 14.0197L9.35136 12.9397C8.64771 12.2734 7.71514 11.9093 6.75031 11.9202C5.28002 11.9202 3.93571 12.7553 3.27661 14.0817L4.53335 15.0656C4.84984 14.0987 5.74246 13.4418 6.75185 13.4356" fill="#EB4335"/>
<path d="M16.6028 16.2758V19.1253H15.6995V12.0859H18.0946C18.6708 12.0736 19.23 12.292 19.6464 12.6949C20.4622 13.4526 20.5144 14.7356 19.7616 15.5583C19.7247 15.5986 19.6863 15.6374 19.6464 15.6746C19.2285 16.0743 18.6708 16.2897 18.0946 16.2742L16.6028 16.2758ZM16.6028 12.9521V15.4096H18.1161C18.4511 15.4204 18.7752 15.2887 19.0088 15.0455C19.4804 14.5884 19.4943 13.8338 19.041 13.3581L19.0318 13.3488C19.0241 13.341 19.0165 13.3317 19.0088 13.3255C18.7768 13.0776 18.4526 12.9428 18.1161 12.9521H16.6028ZM22.3734 14.1514C23.0417 14.1514 23.5687 14.3296 23.9543 14.6875C24.3399 15.0439 24.5335 15.5336 24.5335 16.1565V19.1253H23.6701V18.4559H23.6317C23.2583 19.006 22.7606 19.2818 22.1383 19.2818C21.6528 19.2973 21.1781 19.1299 20.8094 18.8092C20.6387 18.6653 20.5021 18.4847 20.4096 18.2807C20.3171 18.0767 20.271 17.8543 20.2747 17.63C20.2594 17.1652 20.4698 16.7205 20.8386 16.4416C21.215 16.1472 21.7174 16 22.3457 16C22.8051 15.9829 23.2614 16.0836 23.6701 16.2944V16.0867C23.6716 15.7768 23.5349 15.4824 23.2967 15.2872C23.0571 15.0718 22.7467 14.954 22.4256 14.9587C21.9432 14.9479 21.49 15.1896 21.2288 15.5971L20.4345 15.0951C20.8678 14.466 21.5146 14.1514 22.3734 14.1514V14.1514ZM21.2042 17.6502C21.2027 17.8841 21.3148 18.1042 21.5023 18.2405C21.702 18.3986 21.9509 18.4807 22.2044 18.476C22.5854 18.476 22.9495 18.3242 23.2199 18.053C23.5041 17.8036 23.6685 17.441 23.6685 17.0598C23.3858 16.8351 22.9941 16.722 22.4902 16.722C22.1644 16.7096 21.8418 16.8026 21.5729 16.987C21.3471 17.1326 21.2088 17.3805 21.2042 17.6502ZM29.4913 14.3095L26.477 21.2481H25.5444L26.6629 18.82L24.6795 14.3079H25.6612L27.0946 17.7679H27.1146L28.5081 14.3079L29.4913 14.3095Z" fill="white"/>
</svg>
