<svg width="79" height="22" viewBox="0 0 79 22" fill="none" xmlns="http://www.w3.org/2000/svg">
<path d="M29.5456 5.3656H25.1756C25.0309 5.36551 24.8909 5.41706 24.7809 5.51095C24.6709 5.60485 24.5981 5.73492 24.5755 5.87773L22.8081 17.0763C22.8 17.1283 22.8032 17.1814 22.8176 17.232C22.832 17.2826 22.8571 17.3294 22.8914 17.3694C22.9256 17.4093 22.9682 17.4414 23.016 17.4633C23.0638 17.4852 23.1158 17.4966 23.1685 17.4965H25.2548C25.3996 17.4965 25.5396 17.4449 25.6496 17.3509C25.7596 17.2569 25.8324 17.1266 25.8548 16.9837L26.3315 13.9633C26.3539 13.8205 26.4266 13.6903 26.5364 13.5963C26.6463 13.5023 26.7862 13.4506 26.9309 13.4505H28.3143C31.193 13.4505 32.8543 12.0584 33.2882 9.29982C33.4838 8.09293 33.2965 7.14465 32.731 6.48054C32.1099 5.7513 31.0083 5.3656 29.5456 5.3656V5.3656ZM30.0498 9.45563C29.8108 11.0227 28.6127 11.0227 27.4542 11.0227H26.7948L27.2574 8.09612C27.2709 8.0105 27.3146 7.93252 27.3806 7.87621C27.4465 7.81991 27.5304 7.78897 27.6171 7.78897H27.9194C28.7085 7.78897 29.453 7.78897 29.8377 8.23852C30.067 8.50672 30.1373 8.90518 30.0498 9.45563V9.45563ZM42.6086 9.40518H40.5159C40.4291 9.40518 40.3452 9.43612 40.2793 9.49243C40.2133 9.54874 40.1697 9.62671 40.1561 9.71233L40.0635 10.2973L39.9171 10.0853C39.4641 9.42817 38.4538 9.2085 37.4455 9.2085C35.133 9.2085 33.1579 10.9588 32.7732 13.4141C32.5732 14.6389 32.8575 15.81 33.5528 16.6268C34.1905 17.3777 35.103 17.6906 36.1886 17.6906C38.0519 17.6906 39.0852 16.4933 39.0852 16.4933L38.9919 17.0744C38.9836 17.1263 38.9866 17.1795 39.0008 17.2301C39.0151 17.2808 39.0401 17.3278 39.0742 17.3678C39.1084 17.4079 39.1508 17.4401 39.1986 17.4622C39.2463 17.4843 39.2983 17.4958 39.351 17.4958H41.236C41.3808 17.4959 41.5208 17.4443 41.6308 17.3502C41.7409 17.2562 41.8136 17.126 41.836 16.9831L42.9671 9.82536C42.9754 9.77352 42.9723 9.7205 42.9582 9.66994C42.944 9.61939 42.919 9.57252 42.8849 9.53257C42.8508 9.49262 42.8084 9.46054 42.7607 9.43854C42.713 9.41655 42.6611 9.40517 42.6086 9.40518V9.40518ZM39.6916 13.4754C39.4897 14.6702 38.5407 15.4722 37.3305 15.4722C36.7228 15.4722 36.2372 15.2775 35.9253 14.9084C35.6161 14.5418 35.4985 14.0201 35.5969 13.439C35.7854 12.2545 36.7503 11.4263 37.942 11.4263C38.5363 11.4263 39.0194 11.6236 39.3376 11.9959C39.6564 12.372 39.783 12.8969 39.6916 13.4754V13.4754ZM53.7539 9.40518H51.651C51.5518 9.40534 51.4542 9.42968 51.3665 9.47608C51.2789 9.52248 51.2039 9.58955 51.1481 9.67147L48.2477 13.9409L47.0183 9.83813C46.9805 9.713 46.9035 9.60333 46.7985 9.52536C46.6936 9.44738 46.5663 9.40525 46.4355 9.40518H44.369C44.311 9.40503 44.2538 9.41872 44.2022 9.44513C44.1505 9.47153 44.1059 9.50987 44.0721 9.55697C44.0383 9.60407 44.0162 9.65856 44.0077 9.71591C43.9992 9.77326 44.0046 9.8318 44.0233 9.88666L46.3397 16.6798L44.162 19.7519C44.1233 19.8064 44.1003 19.8704 44.0956 19.9371C44.0909 20.0037 44.1047 20.0704 44.1354 20.1297C44.1661 20.1891 44.2125 20.2388 44.2696 20.2736C44.3267 20.3083 44.3923 20.3266 44.4591 20.3266H46.5595C46.6575 20.3268 46.7542 20.3031 46.8411 20.2577C46.928 20.2124 47.0026 20.1466 47.0585 20.0661L54.053 9.9767C54.0909 9.92212 54.1131 9.8582 54.1173 9.79189C54.1214 9.72557 54.1073 9.65939 54.0765 9.60051C54.0457 9.54162 53.9993 9.4923 53.9425 9.45786C53.8856 9.42343 53.8204 9.40521 53.7539 9.40518V9.40518Z" fill="#253B80"/>
<path d="M60.7164 5.36563H56.3457C56.2011 5.36569 56.0613 5.4173 55.9514 5.51119C55.8416 5.60507 55.7688 5.73506 55.7463 5.87776L53.9788 17.0763C53.9706 17.1282 53.9738 17.1812 53.988 17.2318C54.0023 17.2823 54.0273 17.3292 54.0615 17.3691C54.0956 17.4091 54.138 17.4411 54.1857 17.4631C54.2335 17.4851 54.2854 17.4965 54.338 17.4965H56.5808C56.682 17.4964 56.7798 17.4601 56.8567 17.3943C56.9335 17.3286 56.9843 17.2375 57 17.1376L57.5016 13.9633C57.524 13.8205 57.5967 13.6904 57.7066 13.5963C57.8165 13.5023 57.9563 13.4506 58.101 13.4505H59.4838C62.3631 13.4505 64.0238 12.0585 64.4583 9.29985C64.6545 8.09295 64.466 7.14468 63.9005 6.48057C63.28 5.75132 62.179 5.36563 60.7164 5.36563V5.36563ZM61.2206 9.45566C60.9822 11.0227 59.7841 11.0227 58.625 11.0227H57.9662L58.4294 8.09615C58.4427 8.01052 58.4862 7.93248 58.5521 7.87614C58.618 7.8198 58.7018 7.78889 58.7885 7.78899H59.0908C59.8793 7.78899 60.6244 7.789 61.0091 8.23855C61.2384 8.50675 61.3081 8.90521 61.2206 9.45566V9.45566ZM73.7787 9.40521H71.6873C71.6005 9.40497 71.5166 9.43584 71.4507 9.4922C71.3848 9.54857 71.3413 9.62668 71.3282 9.71236L71.2355 10.2973L71.0885 10.0853C70.6355 9.4282 69.6259 9.20853 68.6176 9.20853C66.305 9.20853 64.3305 10.9588 63.9459 13.4141C63.7465 14.6389 64.0296 15.8101 64.7248 16.6268C65.3638 17.3777 66.275 17.6906 67.3607 17.6906C69.224 17.6906 70.2572 16.4933 70.2572 16.4933L70.1639 17.0744C70.1556 17.1265 70.1587 17.1797 70.173 17.2305C70.1873 17.2812 70.2124 17.3283 70.2467 17.3684C70.281 17.4084 70.3235 17.4406 70.3715 17.4626C70.4194 17.4846 70.4716 17.496 70.5243 17.4959H72.4087C72.5534 17.4958 72.6932 17.4441 72.8031 17.3501C72.913 17.2561 72.9857 17.1259 73.0081 16.9831L74.1397 9.82539C74.1478 9.77339 74.1444 9.72027 74.13 9.66967C74.1155 9.61908 74.0903 9.57222 74.056 9.5323C74.0217 9.49238 73.9791 9.46035 73.9313 9.43841C73.8834 9.41648 73.8314 9.40515 73.7787 9.40521V9.40521ZM70.8617 13.4754C70.6611 14.6702 69.7109 15.4722 68.5006 15.4722C67.8942 15.4722 67.4073 15.2775 67.0955 14.9084C66.7862 14.5419 66.6699 14.0201 66.767 13.439C66.9568 12.2545 67.9204 11.4263 69.1121 11.4263C69.7064 11.4263 70.1895 11.6236 70.5077 11.9959C70.8278 12.372 70.9544 12.8969 70.8617 13.4754V13.4754ZM76.2459 5.67278L74.4522 17.0763C74.444 17.1282 74.4471 17.1812 74.4614 17.2318C74.4757 17.2823 74.5007 17.3292 74.5349 17.3691C74.569 17.4091 74.6114 17.4411 74.6591 17.4631C74.7068 17.4851 74.7588 17.4965 74.8113 17.4965H76.6146C76.9143 17.4965 77.1686 17.2794 77.2146 16.9837L78.9833 5.78581C78.9915 5.7339 78.9884 5.68083 78.9741 5.63025C78.9599 5.57967 78.9348 5.53277 78.9007 5.49279C78.8666 5.4528 78.8242 5.42068 78.7765 5.39862C78.7287 5.37655 78.6768 5.36508 78.6242 5.36499H76.605C76.5183 5.3653 76.4345 5.39644 76.3687 5.45284C76.3029 5.50924 76.2594 5.58721 76.2459 5.67278V5.67278Z" fill="#179BD7"/>
<path d="M4.66003 19.6728L4.99422 17.5514L4.24979 17.5342H0.695068L3.16542 1.88098C3.17277 1.83315 3.19708 1.78956 3.23391 1.75814C3.27074 1.72673 3.31764 1.70959 3.36606 1.70984H9.35983C11.3497 1.70984 12.7229 2.12363 13.4398 2.94036C13.7759 3.3235 13.99 3.72389 14.0935 4.1645C14.2021 4.62682 14.204 5.17918 14.098 5.85287L14.0903 5.90204V6.33371L14.4264 6.52401C14.683 6.65392 14.9136 6.82965 15.1069 7.04253C15.3945 7.37011 15.5804 7.78646 15.659 8.28007C15.7402 8.78773 15.7133 9.39182 15.5804 10.0757C15.4271 10.8624 15.1791 11.5476 14.8443 12.1083C14.5489 12.6106 14.1517 13.0456 13.6781 13.3854C13.2334 13.7009 12.705 13.9403 12.1075 14.0936C11.5286 14.2443 10.8685 14.3203 10.1445 14.3203H9.67805C9.34449 14.3203 9.02052 14.4403 8.7662 14.6555C8.51224 14.873 8.34377 15.1735 8.29079 15.5036L8.25564 15.6945L7.66521 19.4333L7.63838 19.5706C7.63135 19.614 7.61921 19.6357 7.60132 19.6504C7.58398 19.6646 7.56236 19.6725 7.53997 19.6728H4.66003Z" fill="#253B80"/>
<path d="M14.7446 5.95178C14.7268 6.06609 14.7063 6.18294 14.6833 6.30299C13.8929 10.3585 11.1886 11.7596 7.73488 11.7596H5.97637C5.554 11.7596 5.19808 12.0661 5.13226 12.4824L4.23192 18.1887L3.97696 19.8062C3.9668 19.8703 3.97068 19.9359 3.98833 19.9984C4.00597 20.061 4.03696 20.1189 4.07917 20.1683C4.12138 20.2177 4.1738 20.2574 4.23282 20.2846C4.29184 20.3118 4.35606 20.3259 4.42106 20.326H7.53999C7.90933 20.326 8.22308 20.0578 8.28122 19.6938L8.3119 19.5354L8.89913 15.8113L8.93683 15.6069C8.99434 15.2417 9.30873 14.9735 9.67807 14.9735H10.1445C13.1663 14.9735 15.5319 13.7474 16.2233 10.1995C16.5121 8.71742 16.3626 7.47988 15.5983 6.60951C15.3561 6.34026 15.0668 6.11738 14.7446 5.95178V5.95178Z" fill="#179BD7"/>
<path d="M13.9179 5.62238C13.6655 5.54941 13.4087 5.49247 13.1491 5.45188C12.6362 5.3731 12.1179 5.33531 11.5989 5.33885H6.90106C6.72227 5.33871 6.54934 5.4025 6.41351 5.51868C6.27768 5.63486 6.18792 5.79576 6.16047 5.97231L5.16108 12.298L5.13232 12.4825C5.16346 12.2811 5.26569 12.0976 5.42051 11.965C5.57534 11.8324 5.77254 11.7596 5.97644 11.7597H7.73495C11.1887 11.7597 13.8929 10.358 14.6834 6.30309C14.707 6.18304 14.7268 6.06618 14.7447 5.95188C14.5361 5.84257 14.3188 5.75094 14.0949 5.67793C14.0362 5.65847 13.9771 5.63995 13.9179 5.62238V5.62238Z" fill="#222D65"/>
<path d="M6.16032 5.97225C6.18754 5.79565 6.27725 5.63467 6.41315 5.51855C6.54905 5.40242 6.72211 5.33887 6.90091 5.33942H11.5988C12.1554 5.33942 12.6749 5.37582 13.149 5.45245C13.4698 5.50284 13.7863 5.57821 14.0953 5.67787C14.3286 5.75513 14.5452 5.84645 14.7452 5.95181C14.9804 4.45309 14.7433 3.43266 13.9324 2.50865C13.0385 1.49141 11.425 1.05591 9.3604 1.05591H3.36664C2.9449 1.05591 2.58515 1.36242 2.51997 1.77941L0.0234221 17.5936C0.0117936 17.667 0.0162178 17.742 0.0363905 17.8136C0.0565632 17.8851 0.0920055 17.9515 0.14028 18.008C0.188554 18.0646 0.248514 18.11 0.316035 18.1412C0.383557 18.1724 0.457037 18.1886 0.531422 18.1887H4.23184L5.16093 12.2979L6.16032 5.97225Z" fill="#253B80"/>
</svg>
